<svg width="100" height="100" viewBox="0 0 100 100" fill="none" xmlns="http://www.w3.org/2000/svg">
<path d="M78.4 66.5C72.9 71.3 68.5 81.7 68.5 81.7C68.5 81.7 61.6 70.3 55.6 66.4C46.1 60.3 42 60.2 42 60.2V65C42 65 49.8 66.2 53.7 69.6C61.9 76.7 68.5 88.1 68.5 88.1C68.5 88.1 74.4 75 80.1 70.5C88.1 64.3 95 65 95 65V60.2C95 60.1 85.1 60.7 78.4 66.5Z" fill="black" stroke="black" stroke-width="3"/>
<path d="M42 80C35.6 76.4 24.2 75.7 24.2 75.7C24.2 75.7 32.9 65.6 34.7 58.7C37.5 47.9 36.2 44 36.2 44L31.6 45.6C31.6 45.6 32.9 53.3 31 58C26.9 67.9 18 77.8 18 77.8C18 77.8 32.6 79.1 38.7 82.9C47.3 88.3 48.9 94.9 48.9 94.9L53.5 93.3C54 93.3 49.7 84.4 42 80Z" fill="black" stroke="black" stroke-width="3"/>
<path d="M35.3 36.8C46.6 35.9 49.9 33.4 49.9 33.4L46.9 29.6C46.9 29.6 40 33.3 34.8 33C23.9 32.4 11.5 27.4 11.5 27.4C11.5 27.4 15 41.4 13.3 48.3C10.9 58.2 5 61.8 5 61.8L8 65.6C8 65.6 15.5 59.1 17.1 50.5C18.4 43.4 15.4 32.5 15.4 32.5C15.4 32.5 28 37.4 35.3 36.8Z" fill="black" stroke="black" stroke-width="3"/>
<path d="M37.4 17.8C44.7 16.7 54.1 10.4 54.1 10.4C54.1 10.4 53.5 23.6 56.5 30.2C61.1 40.4 64.5 42.7 64.5 42.7L67.2 38.7C67.2 38.7 61.3 33.5 59.9 28.5C56.9 18.2 57.7 5 57.7 5C57.7 5 45.4 12.8 38.2 13.5C28 14.5 22.6 10.2 22.6 10.2L19.9 14.3C20 14.5 28.6 19.1 37.4 17.8Z" fill="black" stroke="black" stroke-width="3"/>
<path d="M65 60.5C65 60.5 68.1 53.3 72.4 50.4C81.4 44.3 94.3 40.7 94.3 40.7C94.3 40.7 82.8 31.8 79.8 25.3C75.6 16.2 77.9 9.7 77.9 9.7L73.1 8.5C73.1 8.5 71.2 18.1 75.3 25.9C78.7 32.3 87.8 39.1 87.8 39.1C87.8 39.1 75 42.9 69.6 47.8C61.3 55.4 60.2 59.3 60.2 59.3L65 60.5Z" fill="black" stroke="black" stroke-width="3"/>
</svg>
