<svg width="256" height="256" viewBox="0 0 256 256" fill="none" xmlns="http://www.w3.org/2000/svg">
<path d="M0 48C0 21.4903 21.4903 0 48 0H208C234.51 0 256 21.4903 256 48V208C256 234.51 234.51 256 208 256H48C21.4903 256 0 234.51 0 208V48Z" fill="url(#paint0_linear_1169_73)"/>
<g filter="url(#filter0_d_1169_73)">
<path d="M178.935 30.8052C158.149 34.2814 142.13 47.9722 135.648 67.7596C133.398 74.6049 132.701 80.2203 133.076 88.2422C133.398 95.9967 134.576 100.97 137.791 108.244C138.969 110.971 140.094 113.431 140.255 113.805C140.362 114.18 138.594 113.431 136.184 112.148C123.487 105.302 118.076 98.2429 112.718 81.3969C111.379 77.1185 109.557 71.9844 108.754 70.0057L107.307 66.4226L108.379 63.0534C109.129 60.7003 109.557 57.7054 109.772 53.1062C109.986 47.3839 109.879 46.1004 108.861 42.9451C105.486 32.6235 97.9318 29.2009 88.6636 33.7466C84.4848 35.7788 79.181 41.2337 76.663 46.2074C75.2701 48.8813 74.5201 49.7905 73.6629 49.7905C71.1985 49.7905 63.7517 52.1436 59.1444 54.3362C52.7691 57.438 46.6617 62.0907 41.0364 68.1339C32.7325 77.065 25.5536 88.2957 24.8571 93.4297C24.4821 96.2106 26.5179 102.04 29.1966 106.104C32.0896 110.436 38.2506 116.052 42.7508 118.405C48.4832 121.399 53.6263 122.576 62.6267 122.897L70.2342 123.218V126.801C70.2342 128.78 70.0734 132.898 69.9127 135.999L69.5377 141.615L62.8945 141.936C57.1621 142.15 55.8764 142.363 53.3584 143.593C49.769 145.358 45.9652 149.476 44.8402 152.845C43.8758 155.733 43.7151 160.386 44.5723 163.381C45.2688 165.948 48.9653 169.959 51.7512 171.242C53.3584 171.991 55.2335 172.258 59.5194 172.258C62.6267 172.258 66.2161 172.526 67.5019 172.847C70.4485 173.489 75.5915 176.056 78.8595 178.409L81.3239 180.173L81.6454 185.201C81.9668 190.762 83.7348 196.859 86.3599 201.512L87.9135 204.346H86.092C83.6812 204.346 78.3238 206.058 75.4844 207.715C72.5378 209.427 68.5734 213.652 66.9662 216.7C66.0554 218.465 65.734 219.962 65.6804 222.636C65.6804 226.701 66.5911 228.412 69.6984 230.07C71.4664 231.032 73.5022 231.086 105.379 231.086C134.041 231.086 139.934 230.979 144.22 230.23C152.738 228.786 159.22 226.059 165.328 221.46C167.524 219.802 169.399 218.786 170.31 218.786C172.507 218.786 178.293 217.342 182.418 215.737C197.74 209.962 209.151 198.036 213.973 182.687C216.116 175.842 216.651 171.082 216.33 161.723C215.901 148.353 213.062 139.048 204.919 123.967C200.311 115.41 198.276 109.901 198.276 105.837C198.276 102.789 199.615 99.3125 201.276 97.815C202.883 96.3711 206.044 95.248 208.401 95.248C212.258 95.248 215.419 96.6385 221.259 100.863C225.063 103.644 228.866 102.093 231.384 96.7455C236.795 85.3008 237.599 73.3749 233.688 61.8768C226.241 39.7363 203.258 26.6873 178.935 30.8052ZM200.579 43.2125C211.187 46.9026 218.58 53.534 222.705 63.1069C225.759 70.1127 226.348 78.8833 224.259 86.0496C223.348 89.0444 223.027 89.2583 221.152 88.0283C220.455 87.6005 218.527 86.7448 216.866 86.21C205.776 82.3595 194.74 86.2635 190.132 95.6759C188.418 99.152 187.5 102.393 187.5 105.837C187.5 112.041 188.364 114.768 197.365 132.256C204.062 145.251 206.687 155.519 206.151 166.643C205.508 179.478 200.847 189.907 192.329 197.554C189.382 200.228 181.614 204.881 180.114 204.881C179.739 204.881 179.9 204.079 180.543 202.849C181.989 200.014 184.132 193.009 185.257 187.447C186.704 180.28 186.543 164.397 184.989 158.782C181.828 147.284 176.953 139.583 164.578 126.587C153.006 114.501 148.773 108.457 145.666 99.4194C143.952 94.5528 143.898 94.2854 143.898 85.3543C143.952 76.5837 144.005 76.1024 145.666 71.1823C150.113 57.9728 159.435 48.1861 171.971 43.6938C177.65 41.6616 180.489 41.2872 188.632 41.4477C195.061 41.5546 196.347 41.7685 200.579 43.2125ZM98.8426 44.0681C101.039 47.0095 100.45 58.1333 97.7711 64.5508C96.6996 67.1713 96.8068 68.5618 98.6283 71.9845C99.4855 73.6423 101.575 79.2042 103.182 84.2847C108.272 100.115 110.415 104.34 116.79 110.971C121.826 116.212 125.576 118.672 138.327 125.25C144.541 128.459 151.613 132.363 154.024 133.914C162.488 139.422 168.596 146.214 172.292 154.236C175.239 160.653 175.989 164.45 175.935 173.328C175.882 194.239 167.953 209.427 153.541 216.379C145.72 220.176 144.541 220.283 108.7 220.604C91.3423 220.711 77.1988 220.604 77.1988 220.39C77.1988 219.481 81.2168 216.646 83.574 215.844C86.2527 214.935 90.8601 214.828 97.664 215.577C104.843 216.326 107.736 214.989 107.736 210.978C107.736 209.159 107.307 208.678 102.378 204.774C96.7532 200.335 92.7887 192.795 92.3602 185.628C91.9851 180.334 92.8423 176.43 95.521 171.082C98.5747 164.985 103.021 160.6 108.914 157.819C114.325 155.305 115.504 154.182 115.504 151.401C115.504 148.995 114.272 147.391 111.754 146.588C106.236 144.77 92.3066 155.038 86.2527 165.36C85.0205 167.552 83.8955 169.424 83.8419 169.478C83.7348 169.585 82.6633 168.996 81.3775 168.087C74.8951 163.648 69.752 162.097 61.6088 162.097C56.6264 162.097 55.8228 161.99 54.9656 161.028C53.0905 158.942 54.0549 155.306 57.0014 153.541C58.5015 152.632 59.7337 152.471 66.7519 152.471C75.5915 152.471 76.4487 152.204 78.0024 149.209C79.556 146.267 80.5739 121.079 79.3417 116.64C78.2167 112.522 78.4845 112.629 66.9126 112.629C55.5014 112.575 52.8762 112.094 47.0903 109.046C41.5722 106.104 34.8754 97.9755 34.8754 94.1785C34.8754 93.5367 36.6969 90.1675 38.947 86.7448C42.0007 82.199 44.7866 78.8298 49.5547 74.0701C58.8765 64.7647 65.6268 61.1281 75.5915 60.0051C81.2704 59.3633 82.3419 58.5611 84.5384 53.2666C85.5027 50.967 86.8956 48.1861 87.6992 47.0095C90.9137 42.4103 96.4853 40.9129 98.8426 44.0681Z" fill="white"/>
</g>
<g filter="url(#filter1_d_1169_73)">
<ellipse cx="64.8135" cy="83.1643" rx="6.85254" ry="6.28149" fill="white"/>
</g>
<defs>
<filter id="filter0_d_1169_73" x="20.8125" y="26.0469" width="227.312" height="217.039" filterUnits="userSpaceOnUse" color-interpolation-filters="sRGB">
<feFlood flood-opacity="0" result="BackgroundImageFix"/>
<feColorMatrix in="SourceAlpha" type="matrix" values="0 0 0 0 0 0 0 0 0 0 0 0 0 0 0 0 0 0 127 0" result="hardAlpha"/>
<feOffset dx="4" dy="4"/>
<feGaussianBlur stdDeviation="4"/>
<feComposite in2="hardAlpha" operator="out"/>
<feColorMatrix type="matrix" values="0 0 0 0 0 0 0 0 0 0 0 0 0 0 0 0 0 0 0.25 0"/>
<feBlend mode="normal" in2="BackgroundImageFix" result="effect1_dropShadow_1169_73"/>
<feBlend mode="normal" in="SourceGraphic" in2="effect1_dropShadow_1169_73" result="shape"/>
</filter>
<filter id="filter1_d_1169_73" x="49.9609" y="72.8828" width="29.7031" height="28.5625" filterUnits="userSpaceOnUse" color-interpolation-filters="sRGB">
<feFlood flood-opacity="0" result="BackgroundImageFix"/>
<feColorMatrix in="SourceAlpha" type="matrix" values="0 0 0 0 0 0 0 0 0 0 0 0 0 0 0 0 0 0 127 0" result="hardAlpha"/>
<feOffset dy="4"/>
<feGaussianBlur stdDeviation="4"/>
<feComposite in2="hardAlpha" operator="out"/>
<feColorMatrix type="matrix" values="0 0 0 0 0 0 0 0 0 0 0 0 0 0 0 0 0 0 0.25 0"/>
<feBlend mode="normal" in2="BackgroundImageFix" result="effect1_dropShadow_1169_73"/>
<feBlend mode="normal" in="SourceGraphic" in2="effect1_dropShadow_1169_73" result="shape"/>
</filter>
<linearGradient id="paint0_linear_1169_73" x1="256" y1="0" x2="-1.31322" y2="253.19" gradientUnits="userSpaceOnUse">
<stop stop-color="#9373D9"/>
<stop offset="0.322037" stop-color="#8D6EDA"/>
<stop offset="0.955968" stop-color="#5953D6"/>
</linearGradient>
</defs>
</svg>
